# xmcd CD database file
#
# Track frame offsets:
#	150
#	15738
#	31730
#	47319
#
# Disc length: 841 seconds
#
# Revision: 1
# Processed by: cddbd v1.5.2PL0 Copyright (c) Steve Scherf et al.
# Submitted via: CDex 1.70beta3
#
DISCID=1f034704
DTITLE=ズッコケガールズ（高乃麗、横山智佐、スズトモ） - それいけ！ズッコケ３人組／↑アップアップアップ
DYEAR=2004
DGENRE=Anime
TTITLE0=↑アップアップアップ
TTITLE1=ギュッとしたいな
TTITLE2=↑アップアップアップ（オリジナルカラオケ）
TTITLE3=ギュっとしたいな（オリジナルカラオケ）
EXTD=YEAR: 2004
EXTT0=
EXTT1=
EXTT2=
EXTT3=
PLAYORDER=
